<svg width="27" height="30" viewBox="0 0 27 30" fill="none" xmlns="http://www.w3.org/2000/svg">
<path d="M19.9326 18.53L16.7566 9.5482C16.5678 9.07619 16.3655 8.52325 16.1498 7.8894C15.9475 7.25555 15.7519 6.56776 15.5631 5.82602C15.3743 6.58124 15.172 7.28252 14.9562 7.92986C14.7539 8.56371 14.5584 9.11665 14.3696 9.58866L11.2138 18.53H19.9326ZM26.2668 19.7359L25.4807 20.4505L23.4084 23.7375C22.9082 24.4521 22.5699 25.9151 22.408 25.524L21.4094 22.7377H9.71686L7.73439 28.3412C7.59953 28.6783 7.36352 28.9885 7.02637 29.2717C6.68921 29.5415 6.2644 29.6763 5.75192 29.6763H0.998047L12.468 0.323658H18.6784L26.2668 19.7359Z" fill="#ffffff"/>
</svg>
