<svg width="25" height="30" viewBox="0 0 25 30" xmlns="http://www.w3.org/2000/svg" fill="true">
<path d="M16.2543 30C16.2543 30 17.8264 26.0957 18.6124 24.2751C18.1944 24.5314 18.5098 24.3156 18.0243 24.4774C17.5523 24.6392 17.033 24.7539 16.4666 24.8213C15.9137 24.8887 15.2933 24.9225 14.6055 24.9225C13.4457 24.9225 12.3533 24.7067 11.3284 24.2751C10.3169 23.8301 9.42684 23.1827 8.65812 22.3331C7.9029 21.4835 7.30276 20.445 6.85772 19.2178C6.42616 17.9771 6.21038 16.5678 6.21038 14.9899C6.21038 13.4255 6.41268 12.0297 6.81726 10.8024C7.22185 9.57518 7.78827 8.54349 8.51652 7.70735C9.25826 6.85772 10.1416 6.21039 11.1666 5.76534C12.1915 5.3203 13.3176 5.09778 14.5448 5.09778C15.6507 5.09778 16.561 5.21241 17.2758 5.44167C18.004 5.67094 18.6042 5.92717 19.0762 6.21038C19.5617 6.49359 19.9663 6.74983 20.2899 6.9791C20.6271 7.20836 20.9575 7.32299 21.2812 7.32299C21.6049 7.32299 21.8611 7.25556 22.0499 7.1207C22.2387 6.98584 22.3938 6.83075 22.5152 6.65543L24.5583 3.86379C23.9919 3.29737 23.3513 2.77815 22.6365 2.30614C21.9353 1.82063 21.1666 1.40931 20.3304 1.07215C19.4943 0.734998 18.5907 0.472018 17.6197 0.283211C16.6622 0.0944038 15.644 0 14.5651 0C13.122 0 11.7599 0.168578 10.4788 0.505733C9.21106 0.829401 8.03776 1.30816 6.95887 1.94201C5.87997 2.56238 4.90897 3.3176 4.04585 4.20769C3.19622 5.09777 2.46797 6.09575 1.86109 7.20162C1.25421 8.30749 0.788941 9.52124 0.465273 10.8429C0.155091 12.151 0 13.5334 0 14.9899C0 17.1612 0.330411 19.1639 0.991234 20.998C1.65206 22.8321 2.59609 24.4167 3.82333 25.7519C5.05057 27.087 6.54079 28.1322 8.294 28.8874C10.0472 29.6291 12.0229 30 14.2212 30H16.2543Z" fill="#333333"/>
</svg>
