<svg width="31" height="30" viewBox="0 0 31 30" fill="none" xmlns="http://www.w3.org/2000/svg">
<path d="M30.8692 14.9899C30.8692 17.1342 30.5051 19.1234 29.7769 20.9575C29.0621 22.7916 28.0439 24.3763 26.7222 25.7114C25.4141 27.0465 23.8362 28.0984 21.9886 28.8672C20.141 29.6224 18.0911 30 15.8389 30C13.5867 30 11.5368 29.6224 9.68921 28.8672C7.8416 28.0984 6.25697 27.0465 4.93533 25.7114C3.61368 24.3763 2.58873 22.7916 1.86048 20.9575C1.14571 19.1234 0.78833 17.1342 0.78833 14.9899C0.78833 12.8456 1.14571 10.8631 1.86048 9.04248C2.58873 7.20836 3.61368 5.62374 4.93533 4.2886C6.25697 2.95347 7.8416 1.90829 9.68921 1.15307C11.5368 0.384356 13.5867 0 15.8389 0C18.0911 0 20.141 0.384356 21.9886 1.15307C23.8362 1.90829 25.4141 2.96022 26.7222 4.30883C28.0439 5.64396 29.0621 7.22859 29.7769 9.06271C30.5051 10.8833 30.8692 12.8591 30.8692 14.9899ZM24.6589 14.9899C24.6589 13.4525 24.4566 12.0769 24.052 10.8631C23.6474 9.63587 23.0608 8.59744 22.292 7.74781C21.5368 6.88469 20.613 6.23061 19.5206 5.78557C18.4417 5.32704 17.2145 5.09778 15.8389 5.09778C14.4633 5.09778 13.2293 5.32704 12.1369 5.78557C11.0446 6.23061 10.114 6.88469 9.34531 7.74781C8.59008 8.59744 8.01018 9.63587 7.60559 10.8631C7.20101 12.0769 6.99871 13.4525 6.99871 14.9899C6.99871 16.5408 7.20101 17.9299 7.60559 19.1571C8.01018 20.3709 8.59008 21.4026 9.34531 22.2522C10.114 23.1018 11.0446 23.7559 12.1369 24.2144C13.2293 24.6595 14.4633 24.882 15.8389 24.882C17.2145 24.882 18.4417 24.6595 19.5206 24.2144C20.613 23.7559 21.5368 23.1018 22.292 22.2522C23.0608 21.4026 23.6474 20.3709 24.052 19.1571C24.4566 17.9299 24.6589 16.5408 24.6589 14.9899Z" fill="#333333"/>
</svg>
