<svg width="22" height="30" viewBox="0 0 22 30" fill="none" xmlns="http://www.w3.org/2000/svg">
<path d="M19.118 5.9474C18.9292 6.25759 18.7336 6.48685 18.5313 6.6352C18.3425 6.77006 18.093 6.83749 17.7828 6.83749C17.4861 6.83749 17.1625 6.73635 16.8118 6.53405C16.4747 6.31827 16.0768 6.08901 15.6183 5.84626C15.1598 5.60351 14.6338 5.38098 14.0404 5.17869C13.447 4.96291 12.7525 4.85502 11.9568 4.85502C10.5542 4.85502 9.50232 5.17195 8.80103 5.8058C8.09975 6.42616 7.74911 7.24208 7.74911 8.25354C7.74911 8.90088 7.93792 9.44032 8.31553 9.87188C8.70663 10.29 9.21236 10.6541 9.83273 10.9643C10.4666 11.2744 11.1813 11.5509 11.977 11.7937C12.7727 12.0364 13.5886 12.3061 14.4248 12.6028C15.2609 12.886 16.0768 13.2232 16.8725 13.6143C17.6682 14.0054 18.3762 14.4976 18.9966 15.091C19.6304 15.6844 20.1362 16.4127 20.5138 17.2758C20.9049 18.1254 21.1004 19.1639 21.1004 20.3911C21.1004 21.7262 20.8644 22.9804 20.3924 24.1537C19.9339 25.3136 19.2663 26.3318 18.3897 27.2084C17.5131 28.0715 16.4275 28.7525 15.1328 29.2515C13.8516 29.7505 12.3951 30 10.7633 30C9.83273 30 8.90218 29.9056 7.97163 29.7168C7.05457 29.528 6.16449 29.265 5.30137 28.9278C4.45174 28.5907 3.64931 28.1861 2.89409 27.7141C2.13886 27.2421 1.47804 26.7161 0.911621 26.1362L2.6918 23.2637C2.84014 23.0479 3.03569 22.8726 3.27845 22.7377C3.5212 22.5893 3.77743 22.5152 4.04716 22.5152C4.41128 22.5152 4.79564 22.65 5.20022 22.9198C5.60481 23.1895 6.07008 23.4862 6.59604 23.8098C7.122 24.1335 7.72888 24.4302 8.41668 24.6999C9.11796 24.9697 9.9541 25.1045 10.9251 25.1045C12.3412 25.1045 13.4335 24.7808 14.2022 24.1335C14.9844 23.4862 15.3755 22.5219 15.3755 21.2407C15.3755 20.499 15.18 19.8989 14.7889 19.4403C14.4113 18.9818 13.9123 18.5974 13.2919 18.2873C12.6716 17.9771 11.9635 17.7141 11.1679 17.4983C10.3722 17.269 9.55626 17.0196 8.72012 16.7498C7.88397 16.4801 7.06806 16.1564 6.27238 15.7788C5.47669 15.4012 4.76867 14.9022 4.1483 14.2819C3.52794 13.6615 3.02221 12.8928 2.63111 11.9757C2.2535 11.0587 2.06469 9.91908 2.06469 8.55698C2.06469 7.4646 2.28047 6.40594 2.71203 5.38098C3.14358 4.35604 3.77743 3.44572 4.61358 2.65003C5.44972 1.85435 6.47467 1.21376 7.68842 0.728253C8.91567 0.242751 10.3182 0 11.8961 0C13.6628 0 15.2946 0.276467 16.7916 0.829401C18.302 1.36885 19.5765 2.12407 20.6149 3.09508L19.118 5.9474Z" fill="#333333"/>
</svg>
